<svg width="39" height="39" viewBox="0 0 39 39" fill="none" xmlns="http://www.w3.org/2000/svg">
<circle cx="19.5" cy="19.5" r="19.5" fill="#E93E3E"/>
<path fill-rule="evenodd" clip-rule="evenodd" d="M8.93111 8.83073V16.5631H16.6635H17.5749L16.9312 15.9174L14.6753 13.6635C14.8249 13.5198 14.9784 13.38 15.1399 13.2481C15.3525 13.0749 15.5769 12.9095 15.8052 12.7599C16.9903 11.9883 18.4056 11.5375 19.9273 11.5375H19.9293V11.5355C22.014 11.5355 23.9018 12.382 25.2679 13.7481C26.6341 15.1143 27.4806 17.0021 27.4806 19.0848H27.4786V19.0946H27.4806C27.4806 21.1793 26.6341 23.0691 25.2679 24.4333C23.9018 25.7994 22.014 26.6459 19.9313 26.6459V26.6439H19.9155V26.6459C19.1871 26.6459 18.4608 26.5396 17.7639 26.3329C17.38 26.2187 17.0021 26.0711 16.6399 25.8959C14.7914 25.0022 13.3623 23.3762 12.7284 21.3939L12.6438 21.1321L8 21.138L8.09252 21.5907L8.09449 21.6025V21.6045C8.25197 22.3604 8.4882 23.1045 8.78938 23.8171V23.8191C9.08663 24.5179 9.45474 25.1931 9.87798 25.825C12.0493 29.0593 15.7403 31.1893 19.9273 31.1893H19.9293V31.1873C23.2679 31.1873 26.2935 29.833 28.4786 27.6459V27.644C30.6637 25.4569 32.018 22.4372 32.018 19.1005H32.02V19.0907H32.018C32.018 15.7521 30.6637 12.7284 28.4747 10.5414C26.2935 8.35632 23.2718 7.00394 19.9352 7.00197V7H19.9234V7.00197C18.2088 7.00197 16.5749 7.36024 15.0985 8.00592C14.8603 8.11025 14.6221 8.22442 14.3898 8.34254C13.3111 8.89963 12.3288 9.61421 11.4705 10.4567L9.57482 8.56498L8.93111 7.9193V8.83073Z" fill="#F0F0F0"/>
</svg>
